{"title":"Inception.2010.480p.BRRip.XviD.AC3","uid":5967803,"size":643483879,"categoryP":"video","categoryS":"movies","magnet":"?xt=urn:btih:8a4c31b180582b4f42c3803b82e41fb3897ec0d4&amp;dn=Inception.2010.480p.BRRip.XviD.AC3&amp;tr=udp%3A%2F%2Ftracker.openbittorrent.com%3A80&amp;tr=udp%3A%2F%2Fopen.demonii.com%3A1337&amp;tr=udp%3A%2F%2Ftracker.coppersurfer.tk%3A6969&amp;tr=udp%3A%2F%2Fexodus.desync.com%3A6969","seeders":0,"leechers":0,"uploader":"housespecialist","files":2,"time":1290125878,"description":"Format                           : Matroska\nFile size                        : 2.19 GiB\nDuration                         : 2h 28mn\nOverall bit rate                 : 2 113 Kbps\n\nVideo\nID                               : 1\nFormat                           : MPEG-4 Visual\nFormat profile                   : Advanced Simple@L5\nFormat settings, BVOP            : Yes\nFormat settings, QPel            : No\nFormat settings, GMC             : No warppoints\nFormat settings, Matrix          : Default (MPEG)\nCodec ID                         : XVID\nCodec ID/Hint                    : XviD\nDuration                         : 2h 28mn\nBit rate                         : 1 623 Kbps\nWidth                            : 720 pixels\nHeight                           : 304 pixels\nDisplay aspect ratio             : 2.35:1\nFrame rate                       : 23.976 fps\nColor space                      : YUV\nChroma subsampling               : 4:2:0\nBit depth                        : 8 bits\nScan type                        : Progressive\nBits/(Pixel*Frame)               : 0.309\nStream size                      : 1.68 GiB (77%)\nWriting library                  : XviD 1.2.1 (UTC 2008-12-04)\n\nAudio\nID                               : 2\nFormat                           : AC-3\nFormat/Info                      : Audio Coding 3\nMode extension                   : CM (complete main)\nCodec ID                         : A_AC3\nDuration                         : 2h 28mn\nBit rate mode                    : Constant\nBit rate                         : 448 Kbps\nChannel(s)                       : 6 channels\nChannel positions                : Front: L C R, Side: L R, LFE\nSampling rate                    : 48.0 KHz\nBit depth                        : 16 bits\nStream size                      : 475 MiB (21%)","torrent":{"xt":"urn:btih:8a4c31b180582b4f42c3803b82e41fb3897ec0d4","amp;dn":"Inception.2010.480p.BRRip.XviD.AC3","amp;tr":["udp%3A%2F%2Ftracker.openbittorrent.com%3A80","udp%3A%2F%2Fopen.demonii.com%3A1337","udp%3A%2F%2Ftracker.coppersurfer.tk%3A6969","udp%3A%2F%2Fexodus.desync.com%3A6969"],"infoHash":"8a4c31b180582b4f42c3803b82e41fb3897ec0d4","infoHashBuffer":{"type":"Buffer","data":[138,76,49,177,128,88,43,79,66,195,128,59,130,228,31,179,137,126,192,212]},"announce":[],"urlList":[]}}